<svg width="80" height="70" viewBox="0 0 80 70" fill="none" xmlns="http://www.w3.org/2000/svg"><path d="M76.665 0h-53.33a3.348 3.348 0 0 0-3.331 3.335v14.168l30 8.75L80 17.498V3.331a3.35 3.35 0 0 0-3.335-3.33z" fill="#41A5EE"/><path d="M79.996 17.5H20v17.502l30 8.75 30-8.75V17.499h-.004z" fill="#2B7CD3"/><path d="M79.996 35.002H20V52.5l30 8.75 30-8.75V35h-.004z" fill="#185ABD"/><path d="M79.996 52.5H20v14.17A3.347 3.347 0 0 0 23.33 70h53.332a3.346 3.346 0 0 0 3.33-3.33l.004-14.168z" fill="#103F91"/><path d="M41.666 12.499H20v47.5h21.666c1.825-.007 3.327-1.505 3.33-3.33V15.833a3.36 3.36 0 0 0-3.33-3.335z" fill="#000" fill-opacity=".098"/><path d="M39.167 15H20v47.501h19.167a3.357 3.357 0 0 0 3.331-3.334V18.335A3.36 3.36 0 0 0 39.168 15zm0 0H20v42.501h19.167c1.826-.007 3.328-1.505 3.331-3.331V18.336A3.36 3.36 0 0 0 39.168 15zm-2.502 0H20v42.501h16.666c1.825-.007 3.327-1.505 3.33-3.331V18.336A3.36 3.36 0 0 0 36.666 15z" fill="#000" fill-opacity=".2"/><path d="M3.33 15h33.332a3.35 3.35 0 0 1 3.334 3.332v33.332a3.348 3.348 0 0 1-3.334 3.331H3.33A3.347 3.347 0 0 1 0 51.666V18.331A3.347 3.347 0 0 1 3.33 15z" fill="#185ABD"/><path d="M29.873 47.5h-4.499l-5.25-17.251L14.625 47.5h-4.502l-5-25.001h4.502l3.498 17.498L18.374 23h3.75l5 17.001 3.498-17.499h4.25l-5 24.998z" fill="#fff"/></svg>