<?xml version="1.0" encoding="utf-8"?>
<!-- Generator: Adobe Illustrator 23.0.3, SVG Export Plug-In . SVG Version: 6.00 Build 0)  -->
<svg version="1.1" id="Layer_1" xmlns="http://www.w3.org/2000/svg" xmlns:xlink="http://www.w3.org/1999/xlink" x="0px" y="0px"
	 viewBox="0 0 612 792" style="enable-background:new 0 0 612 792;" xml:space="preserve">
<style type="text/css">
	.st0{fill:url(#SVGID_1_);}
	.st1{fill:#FFFFFF;}
</style>
<linearGradient id="SVGID_1_" gradientUnits="userSpaceOnUse" x1="77.8966" y1="197.1303" x2="479.8765" y2="563.112" gradientTransform="matrix(1 0 0 -1 0 792)">
	<stop  offset="0" style="stop-color:#ED8F03"/>
	<stop  offset="1" style="stop-color:#FFB75E"/>
</linearGradient>
<path class="st0" d="M582.6,348.8c-12.1-32-30.2-60.1-54.7-84.1l0,0c-0.4-0.7-0.7-1.5-1.2-2c-20.9-21.3-43.7-40.2-69.1-56l0,0l0,0
	c-18.5-13.2-38.2-24.2-58.5-34.3l0,0c-16.9-9.2-34.2-17.5-52.1-24.7c-9.3-4.7-19-8.5-28.7-12.1l0,0c-14.1-6.1-28.2-12.2-43.2-15.9
	l0,0c-18.3-6.1-37.1-6.9-56.1-5.8c-19.8,1.3-38.4,6.7-56.1,15.6c-10.3,4.7-20,10.5-28.9,17.5c-17.9,12.7-33.2,28.1-46.4,45.5l0,0
	c-4.2,4.5-7.7,9.6-11.1,14.7C30.2,276.8,9.8,353,17.7,436.5c3.7,38.6,12.8,75.7,29.2,110.9c10.6,22.7,23.7,43.9,41,62.2
	c6.6,7.8,13.8,14.9,22,21.1c15.8,13.7,33.5,24.2,53,31.8c17.9,7.6,36.6,12.2,56,14c6,1.4,12.2,1.3,18.3,1.6
	c12.4,0.7,24.7,0.4,37-1.4l0,0c13.8-0.8,27.5-3.1,41-6c0,0,0,0,0,0c19.2-2.8,38.2-6.7,56.8-12.1c19.8-4.5,39.1-10.4,57.8-18.1
	c9.7-3.1,19.1-7.1,28.1-11.9c18.4-7.9,35.4-18.1,51.6-29.9c6.4-4.7,13-9.2,18.2-15.3c9.4-7.5,17.4-16.3,24.9-25.7
	c23.8-30.2,37-64.6,41.5-102.6C598.4,418.9,595.6,383.3,582.6,348.8z"/>
<g>
	<path class="st1" d="M334.9,523.5h26.6c0-8.4,0-16.5,0-24.6c0-8.6,0.1-17.1-0.1-25.7c-0.2-13.7-10.1-23.9-23.8-24.6
		c-4.5-0.2-9,0.1-13.4-0.4c-1.5-0.2-3.7-2.3-3.9-3.6c-0.1-1.2,1.9-3.6,3.4-4c16.5-4.4,34.6,3.1,41.9,17.7c2.3,4.6,3.8,10,3.9,15.1
		c0.5,17.1,0.1,34.2,0.2,51.3c0,5.1-1.8,7.3-7.1,7.3c-64.8-0.1-129.6-0.1-194.4,0c-5.2,0-7.3-1.8-7.2-7.1c0.2-17.1,0-34.2,0.1-51.3
		c0.2-18.6,14.3-32.8,32.9-33.2c13.8-0.3,27.7-0.1,41.9-0.1c0.9-7.8,2.1-14.6-5.5-20.4c-7.8-5.9-12.6-14.5-13.9-24.4
		c-0.5-3.5-2.1-4.6-5.2-5.5c-8.6-2.5-13.7-8.6-15.8-17.1c-3-12.1,3.1-19.6,16-21c1.5-8.7,2.8-17.2,4.5-25.7c0.6-2.7,1.9-5.5,3.6-7.6
		c0.9-1.2,3.6-1.7,5.1-1.3c1,0.3,2.2,3.4,1.7,4.4c-11.6,24.3-2.6,49.1-1.4,73.5c0.7,13.4,11.7,21.5,22.8,27.7
		c23.7,13.2,56.7-5.5,58.6-32.5c0.9-13.1,1.7-26.2,3-39.3c1.9-19.4-4.8-34.9-21.3-44.9c-16.2-9.8-32.6-8.7-48.4,1.6
		c-2.6,1.7-5.7,4.3-7.5,0.2c-0.7-1.6,1.4-5.7,3.4-7c16.5-11.2,34.3-12.5,52.2-4.1c17.6,8.3,27.2,22.7,29.6,42
		c0.5,4.2,0.1,8.5,0.1,13c2.3,0.2,4.1,0.3,5.8,0.6c7.4,1.4,12.1,7,12.3,14.6c0.3,10.2-6.3,20-16.1,22.8c-4.1,1.1-5.3,3-5.9,7
		c-1.4,9.2-5.9,17.3-13.2,22.8c-7.4,5.6-7,12.3-5.9,20.6c3.4,0,6.7-0.4,9.7,0.2c0.3,0.1,0.6,0.2,0.8,0.3c2.4,1.3,2.9,4.6,1,6.6
		c-0.3,0.3-0.6,0.6-0.9,0.9c-1.2,1.3-3.2,2.3-3.7,3.8c-5.4,18.3-19.2,29.5-36.7,29.4c-17.3-0.1-30.8-11.4-36.1-30.1
		c-0.2-0.8-0.5-1.5-0.9-2.5c-13,0-26-0.7-38.9,0.2c-10,0.7-19,10.1-19.4,20c-0.7,17.9-0.2,35.8-0.2,54.2h26.6c0-9,0-17.7,0-26.4
		c0-3.1-0.2-7,4.2-6.3c1.5,0.2,3.4,4,3.5,6.3c0.4,8.7,0.2,17.4,0.2,26.5h122.4c0-7.3,0-14.6,0-21.8c0-2-0.5-4.3,0.2-6.1
		c0.7-2,2.5-3.5,3.8-5.3c1.4,1.9,3.9,3.6,4,5.6c0.5,7.1,0.2,14.2,0.2,21.4C334.6,519.2,334.8,521.2,334.9,523.5z M236.7,448.6
		c3.4,14.5,13.3,23.6,25.7,24.6c12.9,1,25.2-6.3,29.7-18c1.3-3.3,2.6-6.1-2.1-8.5c-2.1-1-3.2-4.8-3.9-7.6c-0.6-2.3-0.1-5-0.1-8.9
		c-14.4,8.3-27.6,7.6-41.2,0.3C243.9,438.4,246.8,446.6,236.7,448.6z M315.3,382.1c8.5-1.7,13.7-8.9,12-16.4
		c-1.3-5.6-5.4-5.8-10.4-4.8C316.4,368,315.8,375,315.3,382.1z M213.9,360.9c-5.9-1-9.9-0.1-10.9,5.7c-1.2,6.9,4.4,14,12.2,15.2
		C214.8,374.9,214.4,368.1,213.9,360.9z"/>
	<path class="st1" d="M353.7,337.9c0.2,0,0.5,0,0.6-0.1c10.2-14.6,25.5-9.2,39.2-9.7c0.4,0,0.8,0.2,1.2,0.5c2.1,1.8,1.9,5.3-0.4,6.7
		c-0.4,0.3-0.8,0.4-1.2,0.5c-6.5,0.4-13.1-0.2-19.5,0.4c-3.3,0.3-6.9,1.9-9.5,4c-4.1,3.2-7.4,7.5-11.4,11c-1.3,1.2-3.9,2.2-5.2,1.7
		c-1.3-0.5-2.5-3-2.6-4.8c-0.4-3.8-0.1-7.6-0.1-11.3c-21.1-3.7-22.2-5-22.2-26.2c0-11.8-0.1-23.6,0-35.4c0.1-10.9,6.2-17.1,17-17.2
		c26.3-0.1,52.6-0.1,78.8,0c9.2,0,16.7,7.5,16.7,16.7c0.1,14.9-0.1,29.7,0.1,44.6c0.1,12-9.3,18.8-23,16.2c-1.2-0.2-3.2-2.8-2.9-3.8
		c0.4-1.5,2.2-3.4,3.8-3.8c4.3-1,10.4,1.7,12.6-3.7c1.7-4.1,1.3-9.1,1.4-13.7c0.2-11.6,0.2-23.2,0-34.8c-0.1-7.4-2.2-9.6-9.5-9.6
		c-25.9-0.1-51.7-0.1-77.6,0c-5.1,0-9.2,4.1-9.3,9.2c-0.1,14.5-0.1,28.9,0.1,43.4c0.1,6.7,2.5,8.9,9.5,9
		C349.7,328,351,328.9,353.7,337.9z"/>
	<path class="st1" d="M378.8,317.7c-17.3,0.2-33.9-17-33.2-34.6c0-0.3,0.1-0.6,0.2-0.9c1.1-2.9,5.2-3.2,7-0.6
		c0.2,0.3,0.4,0.6,0.5,0.9c0.9,1.9,0.6,4.4,1.2,6.6c2.8,11.7,12.7,20.2,23.6,20.4c6.1,0.1,12.8-5.6,17.7-10.9
		c3.9-4.2,6.5-9.4,8.1-14.9c0.1-0.4,0.2-0.8,0.4-1.1c0.1-0.3,0.3-0.6,0.5-1c1.7-2.6,5.8-2.5,6.9,0.4c0.1,0.3,0.2,0.6,0.2,0.9
		C412.7,300.6,396.4,317.5,378.8,317.7z"/>
	<path class="st1" d="M366.8,280.6c1.2-2.7,5.1-2.9,6.6-0.4c0.2,0.4,0.3,0.7,0.3,1c0,0.3-0.2,0.7-0.4,1c-1.4,2.1-4.6,2.3-6.2,0.4
		c-0.3-0.3-0.5-0.6-0.5-1C366.6,281.3,366.7,280.9,366.8,280.6z"/>
	<path class="st1" d="M390.5,282.4c-1.2,2.7-5.1,2.8-6.6,0.3c-0.2-0.4-0.3-0.7-0.3-1c0-0.3,0.2-0.7,0.4-1c1.4-2.1,4.6-2.2,6.2-0.3
		c0.3,0.3,0.4,0.6,0.5,1C390.8,281.7,390.7,282,390.5,282.4z"/>
</g>
</svg>
